<mxfile host="app.diagrams.net" modified="2022-09-22T10:09:55.107Z" agent="5.0 (Windows NT 10.0; Win64; x64) AppleWebKit/537.36 (KHTML, like Gecko) Chrome/105.0.0.0 Safari/537.36" etag="135V3YW6ij3SQC7H58eY" version="20.3.3" type="github">
  <diagram name="Page-1" id="c9db0220-8083-56f3-ca83-edcdcd058819">
    <mxGraphModel dx="670" dy="359" grid="1" gridSize="10" guides="1" tooltips="1" connect="1" arrows="1" fold="1" page="1" pageScale="1.5" pageWidth="826" pageHeight="1169" background="none" math="0" shadow="0">
      <root>
        <mxCell id="0" style=";html=1;" />
        <mxCell id="1" style=";html=1;" parent="0" />
        <mxCell id="mO-zHP7vXCLAdVrwpv5q-1" value="" style="strokeWidth=1;shadow=0;dashed=0;align=center;html=1;shape=mxgraph.mockup.forms.rrect;rSize=0;strokeColor=#999999;fillColor=#ffffff;" vertex="1" parent="1">
          <mxGeometry x="30" y="230" width="270" height="330" as="geometry" />
        </mxCell>
        <mxCell id="mO-zHP7vXCLAdVrwpv5q-2" value="&lt;b&gt;&lt;font style=&quot;font-size: 15px;&quot;&gt;ВХІД&lt;/font&gt;&lt;/b&gt;" style="strokeWidth=1;shadow=0;dashed=0;align=center;html=1;shape=mxgraph.mockup.forms.anchor;fontSize=12;fontColor=#666666;align=left;resizeWidth=1;spacingLeft=0;" vertex="1" parent="mO-zHP7vXCLAdVrwpv5q-1">
          <mxGeometry width="50" height="20" relative="1" as="geometry">
            <mxPoint x="110" y="10" as="offset" />
          </mxGeometry>
        </mxCell>
        <mxCell id="mO-zHP7vXCLAdVrwpv5q-3" value="" style="shape=line;strokeColor=#ddeeff;strokeWidth=2;html=1;resizeWidth=1;" vertex="1" parent="mO-zHP7vXCLAdVrwpv5q-1">
          <mxGeometry width="243.00000000000003" height="10" relative="1" as="geometry">
            <mxPoint x="10" y="30" as="offset" />
          </mxGeometry>
        </mxCell>
        <mxCell id="mO-zHP7vXCLAdVrwpv5q-4" value="Логін:" style="strokeWidth=1;shadow=0;dashed=0;align=center;html=1;shape=mxgraph.mockup.forms.anchor;fontSize=12;fontColor=#666666;align=left;resizeWidth=1;spacingLeft=0;" vertex="1" parent="mO-zHP7vXCLAdVrwpv5q-1">
          <mxGeometry width="135" height="20" relative="1" as="geometry">
            <mxPoint x="10" y="40" as="offset" />
          </mxGeometry>
        </mxCell>
        <mxCell id="mO-zHP7vXCLAdVrwpv5q-5" value="користувач" style="strokeWidth=1;shadow=0;dashed=0;align=center;html=1;shape=mxgraph.mockup.forms.rrect;rSize=0;strokeColor=#999999;fontColor=#666666;align=left;spacingLeft=5;resizeWidth=1;" vertex="1" parent="mO-zHP7vXCLAdVrwpv5q-1">
          <mxGeometry width="202.5" height="25" relative="1" as="geometry">
            <mxPoint x="10" y="60" as="offset" />
          </mxGeometry>
        </mxCell>
        <mxCell id="mO-zHP7vXCLAdVrwpv5q-6" value="Пароль:" style="strokeWidth=1;shadow=0;dashed=0;align=center;html=1;shape=mxgraph.mockup.forms.anchor;fontSize=12;fontColor=#666666;align=left;resizeWidth=1;spacingLeft=0;" vertex="1" parent="mO-zHP7vXCLAdVrwpv5q-1">
          <mxGeometry width="135" height="20" relative="1" as="geometry">
            <mxPoint x="10" y="95" as="offset" />
          </mxGeometry>
        </mxCell>
        <mxCell id="mO-zHP7vXCLAdVrwpv5q-7" value="********" style="strokeWidth=1;shadow=0;dashed=0;align=center;html=1;shape=mxgraph.mockup.forms.rrect;rSize=0;strokeColor=#999999;fontColor=#666666;align=left;spacingLeft=5;resizeWidth=1;" vertex="1" parent="mO-zHP7vXCLAdVrwpv5q-1">
          <mxGeometry width="202.5" height="25" relative="1" as="geometry">
            <mxPoint x="10" y="115" as="offset" />
          </mxGeometry>
        </mxCell>
        <mxCell id="mO-zHP7vXCLAdVrwpv5q-8" value="Вхід" style="strokeWidth=1;shadow=0;dashed=0;align=center;html=1;shape=mxgraph.mockup.forms.rrect;rSize=5;strokeColor=none;fontColor=#ffffff;fillColor=#66bbff;fontSize=16;fontStyle=1;" vertex="1" parent="mO-zHP7vXCLAdVrwpv5q-1">
          <mxGeometry y="1" width="80" height="30" relative="1" as="geometry">
            <mxPoint x="90" y="-170" as="offset" />
          </mxGeometry>
        </mxCell>
        <mxCell id="mO-zHP7vXCLAdVrwpv5q-9" value="Забули пароль?" style="strokeWidth=1;shadow=0;dashed=0;align=center;html=1;shape=mxgraph.mockup.forms.anchor;fontSize=12;fontColor=#9999ff;align=left;spacingLeft=0;fontStyle=4;resizeWidth=1;" vertex="1" parent="mO-zHP7vXCLAdVrwpv5q-1">
          <mxGeometry y="1" width="100" height="20" relative="1" as="geometry">
            <mxPoint x="10" y="-120" as="offset" />
          </mxGeometry>
        </mxCell>
        <mxCell id="mO-zHP7vXCLAdVrwpv5q-10" value="" style="shape=line;strokeColor=#ddeeff;strokeWidth=2;html=1;resizeWidth=1;" vertex="1" parent="mO-zHP7vXCLAdVrwpv5q-1">
          <mxGeometry y="1" width="243.00000000000003" height="10" relative="1" as="geometry">
            <mxPoint x="10" y="-90" as="offset" />
          </mxGeometry>
        </mxCell>
        <mxCell id="mO-zHP7vXCLAdVrwpv5q-12" value="Реєстрація" style="strokeWidth=1;shadow=0;dashed=0;align=center;html=1;shape=mxgraph.mockup.forms.rrect;rSize=5;strokeColor=none;fontColor=#ffffff;fillColor=#66bbff;fontSize=16;fontStyle=1;" vertex="1" parent="mO-zHP7vXCLAdVrwpv5q-1">
          <mxGeometry y="1" width="100" height="30" relative="1" as="geometry">
            <mxPoint x="80" y="-60" as="offset" />
          </mxGeometry>
        </mxCell>
        <mxCell id="mO-zHP7vXCLAdVrwpv5q-13" value="" style="strokeWidth=1;shadow=0;dashed=0;align=center;html=1;shape=mxgraph.mockup.containers.browserWindow;rSize=0;strokeColor=#666666;strokeColor2=#008cff;strokeColor3=#c4c4c4;mainText=,;recursiveResize=0;fontSize=15;" vertex="1" parent="1">
          <mxGeometry x="400" y="140" width="950" height="960" as="geometry" />
        </mxCell>
        <mxCell id="mO-zHP7vXCLAdVrwpv5q-14" value="&amp;nbsp;Головна" style="strokeWidth=1;shadow=0;dashed=0;align=center;html=1;shape=mxgraph.mockup.containers.anchor;fontSize=17;fontColor=#666666;align=left;" vertex="1" parent="mO-zHP7vXCLAdVrwpv5q-13">
          <mxGeometry x="60" y="12" width="110" height="26" as="geometry" />
        </mxCell>
        <mxCell id="mO-zHP7vXCLAdVrwpv5q-15" value="https://www.&lt;font style=&quot;font-size: 17px;&quot; color=&quot;#707070&quot;&gt;Themperature-Health-Information-Sing.com&lt;/font&gt;" style="strokeWidth=1;shadow=0;dashed=0;align=center;html=1;shape=mxgraph.mockup.containers.anchor;rSize=0;fontSize=17;fontColor=#666666;align=left;" vertex="1" parent="mO-zHP7vXCLAdVrwpv5q-13">
          <mxGeometry x="130" y="60" width="430" height="26" as="geometry" />
        </mxCell>
        <mxCell id="mO-zHP7vXCLAdVrwpv5q-16" value="" style="shape=mxgraph.mockup.containers.marginRect;rectMarginTop=10;strokeColor=#666666;strokeWidth=1;dashed=0;rounded=1;arcSize=5;recursiveResize=0;labelBackgroundColor=none;fontSize=16;fontColor=#707070;" vertex="1" parent="mO-zHP7vXCLAdVrwpv5q-13">
          <mxGeometry x="30" y="125" width="340" height="300" as="geometry" />
        </mxCell>
        <mxCell id="mO-zHP7vXCLAdVrwpv5q-18" value="" style="verticalLabelPosition=bottom;shadow=0;dashed=0;align=center;html=1;verticalAlign=top;strokeWidth=1;shape=mxgraph.mockup.containers.userMale;strokeColor=#666666;strokeColor2=#008cff;labelBackgroundColor=none;fontSize=15;fontColor=#707070;" vertex="1" parent="mO-zHP7vXCLAdVrwpv5q-16">
          <mxGeometry x="10" y="50" width="150" height="150" as="geometry" />
        </mxCell>
        <mxCell id="mO-zHP7vXCLAdVrwpv5q-19" value="&lt;font style=&quot;font-size: 18px;&quot;&gt;Ім&#39;я&lt;/font&gt;" style="strokeWidth=1;shadow=0;dashed=0;align=center;html=1;shape=mxgraph.mockup.forms.anchor;fontSize=12;fontColor=#666666;align=left;resizeWidth=1;spacingLeft=0;" vertex="1" parent="mO-zHP7vXCLAdVrwpv5q-16">
          <mxGeometry x="185" y="70" width="40" height="30" as="geometry" />
        </mxCell>
        <mxCell id="mO-zHP7vXCLAdVrwpv5q-20" value="&lt;font style=&quot;font-size: 18px;&quot;&gt;Прізвище&lt;/font&gt;" style="strokeWidth=1;shadow=0;dashed=0;align=center;html=1;shape=mxgraph.mockup.forms.anchor;fontSize=12;fontColor=#666666;align=left;resizeWidth=1;spacingLeft=0;" vertex="1" parent="mO-zHP7vXCLAdVrwpv5q-16">
          <mxGeometry x="185" y="115" width="90" height="20" as="geometry" />
        </mxCell>
        <mxCell id="mO-zHP7vXCLAdVrwpv5q-22" value="&lt;font style=&quot;font-size: 18px;&quot;&gt;Вік&lt;/font&gt;" style="strokeWidth=1;shadow=0;dashed=0;align=center;html=1;shape=mxgraph.mockup.forms.anchor;fontSize=12;fontColor=#666666;align=left;resizeWidth=1;spacingLeft=0;" vertex="1" parent="mO-zHP7vXCLAdVrwpv5q-16">
          <mxGeometry x="189" y="150" width="40" height="20" as="geometry" />
        </mxCell>
        <mxCell id="mO-zHP7vXCLAdVrwpv5q-24" value="" style="strokeColor=#999999;verticalLabelPosition=bottom;shadow=0;dashed=0;verticalAlign=top;strokeWidth=2;html=1;shape=mxgraph.mockup.misc.shareIcon;labelBackgroundColor=none;fontFamily=Helvetica;fontSize=17;fontColor=#707070;" vertex="1" parent="mO-zHP7vXCLAdVrwpv5q-16">
          <mxGeometry x="100" y="230" width="40" height="40" as="geometry" />
        </mxCell>
        <mxCell id="mO-zHP7vXCLAdVrwpv5q-25" value="" style="strokeColor=#999999;verticalLabelPosition=bottom;shadow=0;dashed=0;verticalAlign=top;strokeWidth=2;html=1;shape=mxgraph.mockup.misc.editIcon;labelBackgroundColor=none;fontFamily=Helvetica;fontSize=17;fontColor=#707070;" vertex="1" parent="mO-zHP7vXCLAdVrwpv5q-16">
          <mxGeometry x="20" y="230" width="40" height="40" as="geometry" />
        </mxCell>
        <mxCell id="mO-zHP7vXCLAdVrwpv5q-23" value="&lt;i&gt;Успішність&lt;/i&gt;" style="verticalLabelPosition=bottom;shadow=0;dashed=0;align=center;html=1;verticalAlign=top;strokeWidth=1;shape=mxgraph.mockup.graphics.lineChart;strokeColor=none;strokeColor2=#666666;strokeColor3=#008cff;strokeColor4=#dddddd;labelBackgroundColor=none;fontFamily=Helvetica;fontSize=17;fontColor=#707070;" vertex="1" parent="mO-zHP7vXCLAdVrwpv5q-13">
          <mxGeometry x="410" y="130" width="460" height="290" as="geometry" />
        </mxCell>
        <mxCell id="mO-zHP7vXCLAdVrwpv5q-17" value="Користувач" style="shape=rect;strokeColor=none;fillColor=#008cff;strokeWidth=1;dashed=0;rounded=1;arcSize=20;fontColor=#ffffff;fontSize=17;spacing=2;spacingTop=-2;align=left;autosize=1;spacingLeft=4;resizeWidth=0;resizeHeight=0;perimeter=none;labelBackgroundColor=none;" vertex="1" parent="mO-zHP7vXCLAdVrwpv5q-13">
          <mxGeometry x="40" y="120" width="115" height="30" as="geometry" />
        </mxCell>
        <mxCell id="mO-zHP7vXCLAdVrwpv5q-79" value="" style="strokeWidth=1;shadow=0;dashed=0;align=center;html=1;shape=mxgraph.mockup.containers.marginRect2;rectMarginLeft=67;strokeColor=#666666;gradientColor=none;labelBackgroundColor=none;fontFamily=Helvetica;fontSize=18;fontColor=#707070;" vertex="1" parent="mO-zHP7vXCLAdVrwpv5q-13">
          <mxGeometry x="30" y="480" width="870" height="430" as="geometry" />
        </mxCell>
        <mxCell id="mO-zHP7vXCLAdVrwpv5q-80" value="ПН" style="strokeColor=inherit;fillColor=inherit;gradientColor=inherit;strokeWidth=1;shadow=0;dashed=0;align=center;html=1;shape=mxgraph.mockup.containers.rrect;rSize=0;fontSize=17;fontColor=#666666;labelBackgroundColor=none;fontFamily=Helvetica;" vertex="1" parent="mO-zHP7vXCLAdVrwpv5q-79">
          <mxGeometry width="60" height="25" relative="1" as="geometry">
            <mxPoint y="10" as="offset" />
          </mxGeometry>
        </mxCell>
        <mxCell id="mO-zHP7vXCLAdVrwpv5q-81" value="ВТ" style="strokeWidth=1;shadow=0;dashed=0;align=center;html=1;shape=mxgraph.mockup.containers.rrect;rSize=0;fontSize=17;fontColor=#ffffff;strokeColor=#008cff;fillColor=#008cff;labelBackgroundColor=none;fontFamily=Helvetica;" vertex="1" parent="mO-zHP7vXCLAdVrwpv5q-79">
          <mxGeometry width="60" height="25" relative="1" as="geometry">
            <mxPoint y="40" as="offset" />
          </mxGeometry>
        </mxCell>
        <mxCell id="mO-zHP7vXCLAdVrwpv5q-82" value="СР" style="strokeColor=inherit;fillColor=inherit;gradientColor=inherit;strokeWidth=1;shadow=0;dashed=0;align=center;html=1;shape=mxgraph.mockup.containers.rrect;rSize=0;fontSize=17;fontColor=#666666;labelBackgroundColor=none;fontFamily=Helvetica;" vertex="1" parent="mO-zHP7vXCLAdVrwpv5q-79">
          <mxGeometry width="60" height="25" relative="1" as="geometry">
            <mxPoint y="70" as="offset" />
          </mxGeometry>
        </mxCell>
        <mxCell id="mO-zHP7vXCLAdVrwpv5q-83" value="" style="strokeWidth=1;shadow=0;dashed=0;align=center;html=1;shape=mxgraph.mockup.containers.leftButton;rSize=5;strokeColor=#008cff;fillColor=#008cff;resizeHeight=1;movable=0;deletable=0;labelBackgroundColor=none;fontFamily=Helvetica;fontSize=18;fontColor=#707070;" vertex="1" parent="mO-zHP7vXCLAdVrwpv5q-79">
          <mxGeometry width="7" height="430" relative="1" as="geometry">
            <mxPoint x="60" as="offset" />
          </mxGeometry>
        </mxCell>
        <mxCell id="mO-zHP7vXCLAdVrwpv5q-84" value="ЧТ" style="strokeColor=inherit;fillColor=inherit;gradientColor=inherit;strokeWidth=1;shadow=0;dashed=0;align=center;html=1;shape=mxgraph.mockup.containers.rrect;rSize=0;fontSize=17;fontColor=#666666;labelBackgroundColor=none;fontFamily=Helvetica;" vertex="1" parent="mO-zHP7vXCLAdVrwpv5q-79">
          <mxGeometry y="100" width="60" height="25" as="geometry" />
        </mxCell>
        <mxCell id="mO-zHP7vXCLAdVrwpv5q-85" value="ПТ" style="strokeColor=inherit;fillColor=inherit;gradientColor=inherit;strokeWidth=1;shadow=0;dashed=0;align=center;html=1;shape=mxgraph.mockup.containers.rrect;rSize=0;fontSize=17;fontColor=#666666;labelBackgroundColor=none;fontFamily=Helvetica;" vertex="1" parent="mO-zHP7vXCLAdVrwpv5q-79">
          <mxGeometry y="130" width="60" height="25" as="geometry" />
        </mxCell>
        <mxCell id="mO-zHP7vXCLAdVrwpv5q-86" value="СБ" style="strokeColor=inherit;fillColor=inherit;gradientColor=inherit;strokeWidth=1;shadow=0;dashed=0;align=center;html=1;shape=mxgraph.mockup.containers.rrect;rSize=0;fontSize=17;fontColor=#666666;labelBackgroundColor=none;fontFamily=Helvetica;" vertex="1" parent="mO-zHP7vXCLAdVrwpv5q-79">
          <mxGeometry y="160" width="60" height="25" as="geometry" />
        </mxCell>
        <mxCell id="mO-zHP7vXCLAdVrwpv5q-87" value="ВС" style="strokeColor=inherit;fillColor=inherit;gradientColor=inherit;strokeWidth=1;shadow=0;dashed=0;align=center;html=1;shape=mxgraph.mockup.containers.rrect;rSize=0;fontSize=17;fontColor=#666666;labelBackgroundColor=none;fontFamily=Helvetica;" vertex="1" parent="mO-zHP7vXCLAdVrwpv5q-13">
          <mxGeometry x="30" y="670" width="60" height="25" as="geometry" />
        </mxCell>
      </root>
    </mxGraphModel>
  </diagram>
</mxfile>
